<svg xmlns="http://www.w3.org/2000/svg" viewBox="0 0 389.86 132.05"><defs><style>.a{fill:#00a0ff;}</style></defs><title>资源 1</title><path class="a" d="M105.68,13.27h0a66.52,66.52,0,0,0-7.66-5,4.36,4.36,0,0,0-5.6,1.18L75.92,31.38l-1.18,1.56a9,9,0,0,1-7.6,3.53,30,30,0,0,0-3.24,0A29.45,29.45,0,0,0,36.32,67.43a3.24,3.24,0,0,0,1.85,2.8,7.76,7.76,0,1,1-9.32,2.28,4.89,4.89,0,0,0,1-3.44A36,36,0,0,1,65.55,29.92a6.7,6.7,0,0,0,5.31-2.68L86.05,7.06a2.82,2.82,0,0,0-1.48-4.4A66,66,0,0,0,34,123.78a4.35,4.35,0,0,0,5.58-1.19L56,100.67l1.18-1.56a9,9,0,0,1,7.6-3.53,30,30,0,0,0,3.24,0A29.45,29.45,0,0,0,95.63,64.62a3.24,3.24,0,0,0-1.85-2.8,7.76,7.76,0,1,1,9.31-2.28A4.89,4.89,0,0,0,102,63,36,36,0,0,1,66.4,102.13a6.7,6.7,0,0,0-5.31,2.68L45.9,125a2.82,2.82,0,0,0,1.44,4.4A66,66,0,0,0,105.68,13.27Z"/><path class="a" d="M214.65,31.31V29.74a2.05,2.05,0,0,0-2.05-2.05H161.17a2.05,2.05,0,0,0-2.05,2.05v3.14a2.05,2.05,0,0,0,2.05,2.05H204.8a2,2,0,0,1,2,2.35,78.85,78.85,0,0,1-17.05,37.85,2.07,2.07,0,0,1-3.24,0,71.74,71.74,0,0,1-14-30.83,2,2,0,0,0-2.24-1.68l-1.64.17-1.45.15a2,2,0,0,0-1.81,2.4A82,82,0,0,0,182,80.71a2.06,2.06,0,0,1-.17,2.81c-14.34,13.15-27.23,16-31.84,16.66a2.06,2.06,0,0,0-1.79,2l0,3.17a2,2,0,0,0,2.28,2c5.48-.64,20.12-3.74,36.28-18.61a2.07,2.07,0,0,1,2.81,0,81.81,81.81,0,0,0,31.27,18.49,2.06,2.06,0,0,0,2.58-1.39l.89-3a2.06,2.06,0,0,0-1.37-2.54,75.63,75.63,0,0,1-28.38-16.65,2,2,0,0,1-.14-2.85C214.41,57.48,214.65,32.44,214.65,31.31Z"/><path class="a" d="M250.35,24.4h-3.14a2.05,2.05,0,0,0-2.05,2.05v11a2.05,2.05,0,0,1-2.05,2.05h-7.38a2.05,2.05,0,0,0-2.05,2.05V44.7a2.05,2.05,0,0,0,2.05,2.05h7.38a2.05,2.05,0,0,1,2.05,2.05V64.74a2.05,2.05,0,0,1-2.05,2.05h-7.38a2.05,2.05,0,0,0-2.05,2.05V72A2.05,2.05,0,0,0,235.73,74h7.38a2.05,2.05,0,0,1,2.05,2.05V91.15c0,3.27-1.31,8.61-9.65,9.31a2.07,2.07,0,0,0-1.92,2v3.13a2.05,2.05,0,0,0,2.21,2.05c8.1-.69,16.6-5.29,16.6-16.54V76.09A2.05,2.05,0,0,1,254.46,74H261A2.05,2.05,0,0,0,263.07,72V68.85A2.05,2.05,0,0,0,261,66.79h-6.56a2.05,2.05,0,0,1-2.05-2.05V48.81a2.05,2.05,0,0,1,2.05-2.05H261a2.05,2.05,0,0,0,2.05-2.05V41.56A2.05,2.05,0,0,0,261,39.51h-6.56a2.05,2.05,0,0,1-2.05-2.05v-11A2.05,2.05,0,0,0,250.35,24.4Z"/><path class="a" d="M266.69,105.14a2.05,2.05,0,0,0,2.05,2.05h23.14c10.24,0,18.57-7.94,18.57-17.7V40.86a2.05,2.05,0,0,0-2.05-2.05H268.74a2.05,2.05,0,0,0-2.05,2.05ZM291.88,100H276a2.05,2.05,0,0,1-2.05-2.05V76.09A2.05,2.05,0,0,1,276,74h25.17a2.05,2.05,0,0,1,2.05,2.05V89.49C303.2,95.26,298.12,100,291.88,100ZM303.2,48.11V64.74a2.05,2.05,0,0,1-2.05,2.05H276a2.05,2.05,0,0,1-2.05-2.05V48.11A2.05,2.05,0,0,1,276,46.06h25.17A2.05,2.05,0,0,1,303.2,48.11Z"/><path class="a" d="M298.21,24.35H277.77a2.05,2.05,0,0,0-2.05,2.05v3.14a2.05,2.05,0,0,0,2.05,2.05h20.44a2.05,2.05,0,0,0,2.05-2.05V26.4A2.05,2.05,0,0,0,298.21,24.35Z"/><path class="a" d="M376.34,27.54H333.77a2.05,2.05,0,0,0-2.05,2.05v3.14a2.05,2.05,0,0,0,2.05,2.05h42.57a2.05,2.05,0,0,0,2.05-2.05V29.59A2.05,2.05,0,0,0,376.34,27.54Z"/><path class="a" d="M358.15,63.85h29.66a2.05,2.05,0,0,0,2.05-2.05V58.66a2.05,2.05,0,0,0-2.05-2.05H322.3a2.05,2.05,0,0,0-2.05,2.05V61.8a2.05,2.05,0,0,0,2.05,2.05h20.27A2.05,2.05,0,0,1,344.28,67L330.79,91.38A7,7,0,0,0,330,93a10.61,10.61,0,0,0,1.45,9.71,11.67,11.67,0,0,0,9.51,4.81h37a4.78,4.78,0,0,0,4.06-2.22,4.65,4.65,0,0,0,.28-4.49l-8.59-16.64a2.05,2.05,0,0,0-2.77-.88l-2.79,1.44a2.05,2.05,0,0,0-.88,2.77l5.05,9.8a2.05,2.05,0,0,1-1.83,3H340.93a4.36,4.36,0,0,1-3.62-1.77,3.41,3.41,0,0,1-.59-2.8,1.94,1.94,0,0,1,.28-.6L353.4,66.4A5.71,5.71,0,0,1,358.15,63.85Z"/></svg>